<svg xmlns="http://www.w3.org/2000/svg" xmlns:xlink="http://www.w3.org/1999/xlink" xmlns:xodm="http://www.corel.com/coreldraw/odm/2003" xml:space="preserve" version="1.0" style="shape-rendering:geometricPrecision;text-rendering:geometricPrecision;image-rendering:optimizeQuality;" viewBox="0 0 3905 4881.25" x="0px" y="0px" fill-rule="evenodd" clip-rule="evenodd"><defs><style type="text/css">
   
    .fil0 {fill:white}
   
  </style></defs><g><path class="fil0" d="M620 2669c356,-99 650,-101 1168,240l692 -151c106,-23 167,8 205,57 24,32 33,69 24,108 -9,39 -32,69 -68,87l-744 377c-67,43 -21,115 33,90l852 -427c35,-18 61,-44 78,-80 19,-40 47,-72 85,-99l690 -483c175,-123 312,48 257,110l-843 854 -899 463c-119,61 -237,83 -370,67l-1146 -129c-44,-5 -77,-42 -77,-86l0 -914c0,-40 25,-73 63,-84zm1533 -2163c2,4 7,7 12,7 5,0 9,-3 12,-7 194,-342 491,-606 898,-469 313,105 540,414 540,779 0,518 -533,939 -875,1273l-482 444c-53,48 -134,48 -187,0l-481 -444c-342,-334 -875,-755 -875,-1273 0,-375 239,-690 565,-787 398,-118 685,146 873,477zm-2066 2170l277 0c48,0 87,39 87,86l0 970c0,95 -78,173 -173,173l-191 0c-48,0 -87,-39 -87,-87l0 -1056c0,-47 39,-86 87,-86z"/></g><text x="0" y="3920" fill="#000000" font-size="5px" font-weight="bold" font-family="'Helvetica Neue', Helvetica, Arial-Unicode, Arial, Sans-serif">Created by popcornarts</text><text x="0" y="3925" fill="#000000" font-size="5px" font-weight="bold" font-family="'Helvetica Neue', Helvetica, Arial-Unicode, Arial, Sans-serif">from the Noun Project</text></svg>